<?xml version="1.0" encoding="UTF-8"?>
<svg xmlns="http://www.w3.org/2000/svg" xmlns:xlink="http://www.w3.org/1999/xlink" width="18px" height="18px" viewBox="0 0 18 18" version="1.1">
<g id="surface1">
<path style=" stroke:none;fill-rule:evenodd;fill:rgb(0%,0%,0%);fill-opacity:1;" d="M 9 16.195312 C 4.777344 12.039062 0.75 8.472656 0.75 5.394531 C 0.75 2.550781 3.050781 1.5 4.710938 1.5 C 5.695312 1.5 7.824219 1.875 9 4.84375 C 10.191406 1.867188 12.347656 1.507812 13.292969 1.507812 C 15.199219 1.507812 17.25 2.722656 17.25 5.394531 C 17.25 8.445312 13.398438 11.863281 9 16.195312 M 13.292969 0.757812 C 11.640625 0.757812 9.960938 1.539062 9 3.1875 C 8.035156 1.53125 6.359375 0.75 4.710938 0.75 C 2.324219 0.75 0 2.390625 0 5.394531 C 0 8.890625 4.179688 12.464844 9 17.25 C 13.824219 12.464844 18 8.890625 18 5.394531 C 18 2.386719 15.679688 0.757812 13.292969 0.757812 "/>
</g>
</svg>
